<?xml version="1.0" encoding="utf-8"?>
<!-- Generator: Adobe Illustrator 15.1.0, SVG Export Plug-In . SVG Version: 6.00 Build 0)  -->
<!DOCTYPE svg PUBLIC "-//W3C//DTD SVG 1.1//EN" "http://www.w3.org/Graphics/SVG/1.1/DTD/svg11.dtd">
<svg version="1.1" id="Layer_1" xmlns="http://www.w3.org/2000/svg" xmlns:xlink="http://www.w3.org/1999/xlink" x="0px" y="0px"
	 width="200px" height="1540px" viewBox="0 0 200 1540" enable-background="new 0 0 200 1540" xml:space="preserve">
<g>
	<path fill="#848484" d="M105.014,1455.334H69.918c-2.506-0.002-4.787,1.021-6.425,2.666c-1.643,1.641-2.663,3.918-2.663,6.42
		c-0.001,2.506,1.021,4.785,2.663,6.428c1.639,1.643,3.92,2.662,6.425,2.66c2.504,0.002,4.786-1.02,6.426-2.66
		c1.644-1.643,2.664-3.922,2.663-6.428c0.001-2.27-0.85-4.357-2.236-5.951h21.392c-1.386,1.594-2.236,3.682-2.235,5.951
		c-0.001,2.506,1.02,4.785,2.662,6.428c1.639,1.643,3.919,2.662,6.425,2.66c2.502,0.002,4.783-1.02,6.424-2.66
		c1.643-1.643,2.664-3.922,2.664-6.428c0-2.502-1.021-4.779-2.664-6.42C109.799,1456.357,107.518,1455.332,105.014,1455.334z
		 M74.127,1460.215c1.081,1.084,1.744,2.563,1.745,4.205c0,1.646-0.664,3.125-1.745,4.209c-1.083,1.08-2.563,1.744-4.209,1.746
		c-1.647-0.002-3.125-0.666-4.208-1.746c-1.08-1.084-1.743-2.563-1.744-4.209c0.001-1.643,0.664-3.121,1.745-4.205
		c1.083-1.082,2.562-1.746,4.208-1.746S73.044,1459.133,74.127,1460.215z M109.223,1468.629c-1.082,1.08-2.563,1.744-4.209,1.746
		c-1.648-0.002-3.127-0.666-4.207-1.746c-1.081-1.084-1.745-2.563-1.745-4.209c0-1.643,0.664-3.121,1.745-4.205
		c1.082-1.082,2.561-1.746,4.207-1.746c1.645,0,3.123,0.664,4.207,1.746c1.078,1.084,1.742,2.563,1.744,4.205
		C110.963,1466.068,110.299,1467.545,109.223,1468.629z"/>
	<path fill="#848484" d="M157.336,1447.383l-0.031-0.021c-0.709-0.461-1.531-0.701-2.361-0.701c-0.547,0-1.102,0.105-1.627,0.322
		l-0.004,0.002l-24.172,10.072v-10.184c0-1.813-0.74-3.471-1.932-4.652c-1.188-1.188-2.84-1.93-4.648-1.928h-3.445v-13.473
		c0-0.959,0.383-1.811,1.008-2.439c0.629-0.625,1.48-1.008,2.439-1.008h8.654c0.291,1.189,0.895,2.254,1.729,3.086
		c1.188,1.189,2.844,1.93,4.656,1.928h15.039c1.811,0,3.465-0.738,4.648-1.926c1.189-1.186,1.934-2.84,1.934-4.654
		c0-1.813-0.742-3.471-1.936-4.654c-1.186-1.188-2.84-1.926-4.646-1.926h-15.039c-1.814,0-3.469,0.736-4.654,1.926
		c-0.836,0.834-1.439,1.898-1.73,3.088h-8.654c-1.814-0.002-3.467,0.738-4.652,1.928c-1.188,1.186-1.928,2.842-1.928,4.652v13.475
		h-16.92v-8.461c0-1.814-0.742-3.471-1.932-4.654c-1.188-1.188-2.841-1.928-4.65-1.926H42.345c-0.865,0-1.568,0.701-1.568,1.566
		c0,0.867,0.703,1.568,1.568,1.568H92.48c0.953,0,1.805,0.383,2.436,1.008c0.627,0.629,1.011,1.48,1.012,2.438v8.461H52.371
		c-1.813-0.002-3.469,0.738-4.655,1.928c-1.188,1.186-1.927,2.842-1.926,4.652v40.107c-0.001,1.814,0.737,3.471,1.926,4.656
		c1.187,1.188,2.843,1.928,4.655,1.926h70.188c1.811,0.002,3.465-0.736,4.648-1.926c1.189-1.186,1.932-2.842,1.932-4.656v-10.182
		l24.172,10.084h0.006c0.525,0.219,1.078,0.32,1.625,0.32c0.832,0,1.652-0.238,2.363-0.699l0.029-0.021
		c1.158-0.793,1.885-2.105,1.887-3.547v-32.01C159.221,1449.488,158.494,1448.176,157.336,1447.383z M135.164,1419.369
		c0.627-0.625,1.479-1.008,2.438-1.008h15.039c0.953,0,1.807,0.381,2.436,1.008c0.627,0.631,1.01,1.48,1.01,2.439
		c0,0.957-0.383,1.807-1.01,2.438c-0.629,0.627-1.48,1.008-2.436,1.01h-15.039c-0.959-0.002-1.811-0.383-2.438-1.01
		s-1.01-1.479-1.01-2.438S134.537,1419.996,135.164,1419.369z M124.994,1489.418c-0.631,0.627-1.479,1.012-2.436,1.012H52.371
		c-0.958-0.002-1.811-0.385-2.438-1.01c-0.625-0.629-1.008-1.479-1.009-2.438v-40.107c0.001-0.959,0.383-1.809,1.009-2.438
		c0.627-0.625,1.479-1.01,2.438-1.01h45.12c0.001,0,0.001,0,0.002,0s0.001,0,0.003,0h20.047c0.002,0,0.002,0,0.004,0h0.002h5.01
		c0.953,0,1.805,0.383,2.436,1.01c0.627,0.629,1.008,1.479,1.01,2.438v12.521c0,0.002,0,0.008,0,0.014v15.043
		c0,0.004,0,0.006,0,0.01v12.521C126.002,1487.939,125.621,1488.789,124.994,1489.418z M154.514,1483.986l-25.373-10.582v-12.951
		l25.371-10.574c0.139-0.055,0.281-0.082,0.432-0.082c0.221,0,0.443,0.064,0.639,0.188c0.318,0.227,0.51,0.588,0.504,0.945v32.012
		c0.006,0.354-0.186,0.719-0.504,0.941c-0.193,0.123-0.418,0.188-0.639,0.188C154.793,1484.068,154.648,1484.041,154.514,1483.986z"
		/>
</g>
<g>
	<path fill="#848484" d="M88.562,1308.002c-1.643,1.639-2.664,3.918-2.664,6.42c0,2.506,1.021,4.785,2.664,6.426
		c1.64,1.643,3.92,2.664,6.424,2.662c2.505,0.002,4.787-1.021,6.424-2.662c1.645-1.641,2.662-3.92,2.662-6.426
		c0-2.271-0.85-4.359-2.234-5.951h21.393c-1.387,1.592-2.236,3.68-2.236,5.951c0,2.506,1.021,4.785,2.662,6.426
		c1.643,1.643,3.924,2.664,6.426,2.662c2.504,0.002,4.785-1.021,6.428-2.662s2.66-3.92,2.66-6.426c0-2.502-1.02-4.781-2.66-6.42
		c-1.643-1.645-3.922-2.67-6.428-2.668H94.986C92.482,1305.334,90.2,1306.357,88.562,1308.002z M130.08,1308.469
		c1.646,0,3.123,0.664,4.207,1.746c1.082,1.084,1.744,2.564,1.746,4.205c-0.002,1.648-0.666,3.125-1.744,4.209
		c-1.084,1.08-2.563,1.744-4.209,1.746c-1.646-0.002-3.127-0.666-4.209-1.746c-1.082-1.084-1.744-2.561-1.744-4.209
		c0-1.641,0.662-3.121,1.744-4.205C126.955,1309.133,128.434,1308.469,130.08,1308.469z M89.035,1314.42
		c0.002-1.641,0.664-3.121,1.744-4.205c1.084-1.082,2.561-1.746,4.209-1.746c1.645,0,3.123,0.664,4.207,1.746
		c1.082,1.084,1.746,2.564,1.746,4.205c0,1.648-0.665,3.125-1.744,4.209c-1.084,1.08-2.563,1.744-4.209,1.746
		c-1.648-0.002-3.127-0.666-4.209-1.746C89.699,1317.545,89.037,1316.07,89.035,1314.42z"/>
	<path fill="#848484" d="M40.777,1300.928v32.012c0.002,1.438,0.729,2.752,1.886,3.547l0.031,0.02
		c0.711,0.461,1.53,0.699,2.362,0.699c0.547,0,1.102-0.104,1.627-0.32l0.005-0.002l24.17-10.082v10.182
		c0,1.814,0.74,3.473,1.932,4.656c1.187,1.188,2.841,1.928,4.649,1.926h70.186c1.814,0.002,3.473-0.736,4.656-1.926
		c1.189-1.188,1.926-2.844,1.926-4.656v-40.107c0-1.813-0.736-3.469-1.926-4.654c-1.188-1.188-2.844-1.928-4.656-1.928H104.07
		v-8.459c0.002-0.957,0.385-1.809,1.012-2.438c0.631-0.625,1.482-1.008,2.438-1.008h50.139c0.863,0,1.564-0.701,1.564-1.568
		c0-0.865-0.701-1.566-1.564-1.566H107.52c-1.813,0-3.463,0.738-4.648,1.928c-1.188,1.184-1.93,2.838-1.93,4.652v8.461H84.02
		v-13.473c0.002-1.814-0.738-3.469-1.926-4.654c-1.186-1.188-2.841-1.928-4.652-1.928h-8.655c-0.291-1.188-0.898-2.254-1.732-3.086
		c-1.187-1.189-2.84-1.928-4.654-1.926H47.357c-1.809,0-3.462,0.736-4.647,1.926c-1.19,1.184-1.933,2.84-1.933,4.654
		c0,1.813,0.742,3.469,1.932,4.652c1.186,1.189,2.84,1.928,4.648,1.928h15.041c1.813,0,3.468-0.738,4.655-1.928
		c0.834-0.834,1.44-1.898,1.731-3.088h8.654c0.959,0.002,1.809,0.383,2.438,1.01c0.624,0.629,1.007,1.48,1.007,2.439v13.475h-3.444
		c-1.81-0.002-3.464,0.738-4.649,1.926c-1.191,1.184-1.932,2.84-1.932,4.654v10.184l-24.17-10.074l-0.006-0.002
		c-0.524-0.215-1.079-0.32-1.626-0.32c-0.831,0-1.651,0.238-2.362,0.701l-0.031,0.02
		C41.504,1298.176,40.779,1299.49,40.777,1300.928z M65.844,1271.807c0,0.959-0.382,1.811-1.008,2.438
		c-0.628,0.625-1.48,1.008-2.438,1.01H47.357c-0.952-0.002-1.805-0.383-2.435-1.01c-0.626-0.629-1.009-1.479-1.01-2.438
		c0.001-0.957,0.384-1.807,1.01-2.438c0.629-0.627,1.481-1.008,2.435-1.01h15.041c0.958,0,1.811,0.385,2.438,1.01
		C65.462,1269.998,65.844,1270.85,65.844,1271.807z M73.995,1336.982v-12.521c0-0.002,0-0.006,0-0.008v-15.045
		c0-0.006,0-0.01,0-0.014v-12.52c0.001-0.957,0.383-1.809,1.01-2.438c0.63-0.627,1.481-1.01,2.437-1.01h5.009h0.002
		c0.002,0,0.002,0,0.004,0h20.047c0.002,0,0.002,0,0.002,0c0.002,0,0.002,0,0.004,0h45.117c0.961,0,1.813,0.383,2.438,1.01
		s1.01,1.479,1.012,2.438v40.105c-0.002,0.961-0.387,1.811-1.012,2.439c-0.629,0.625-1.479,1.006-2.438,1.008H77.441
		c-0.955,0-1.807-0.383-2.437-1.01C74.377,1338.791,73.996,1337.941,73.995,1336.982z M45.056,1334.07
		c-0.22,0-0.442-0.064-0.638-0.188c-0.32-0.227-0.508-0.588-0.506-0.943v-32.01c-0.002-0.357,0.186-0.721,0.506-0.947
		c0.194-0.123,0.418-0.186,0.638-0.186c0.148,0,0.293,0.027,0.431,0.082l25.372,10.572v12.951l-25.373,10.584
		C45.349,1334.043,45.204,1334.07,45.056,1334.07z"/>
</g>
<g>
	<path fill="#848484" d="M133.715,1148.789c-0.902,0-1.639,0.732-1.639,1.637v52.201H53.521v-87.172h67.272
		c0.904,0,1.639-0.734,1.639-1.637c0-0.906-0.734-1.639-1.639-1.639H51.884c-0.431,0-0.854,0.176-1.157,0.479
		c-0.306,0.303-0.479,0.729-0.479,1.158v90.447c0,0.43,0.174,0.852,0.479,1.154c0.304,0.307,0.727,0.48,1.157,0.48h81.831
		c0.432,0,0.852-0.178,1.156-0.48c0.309-0.305,0.479-0.727,0.479-1.154v-53.84C135.354,1149.523,134.619,1148.789,133.715,1148.789z
		"/>
	<path fill="#848484" d="M152.07,1107.297c-0.482-1.076-1.252-1.986-2.209-2.65c-0.955-0.662-2.113-1.08-3.361-1.082
		c-0.715,0-1.449,0.141-2.156,0.443c-0.705,0.299-1.377,0.758-1.979,1.357l-41.105,41.109c-0.131,0.129-0.229,0.264-0.309,0.426
		l-6.09,12.188c-0.315,0.637-0.192,1.393,0.308,1.893s1.257,0.621,1.89,0.307l12.177-6.092c0.162-0.082,0.299-0.178,0.428-0.309
		l41.117-41.117c0.602-0.6,1.059-1.271,1.357-1.977c0.301-0.707,0.441-1.441,0.439-2.154
		C152.58,1108.811,152.391,1108.016,152.07,1107.297z M107.533,1152.387l-7.549,3.775l3.774-7.559l33.678-33.68l3.775,3.781
		L107.533,1152.387z M149.125,1110.512c-0.129,0.297-0.33,0.613-0.66,0.945l-4.936,4.936l-3.777-3.781l4.93-4.928
		c0.33-0.332,0.646-0.535,0.945-0.664c0.299-0.125,0.584-0.18,0.873-0.18c0.334,0,0.676,0.074,1.01,0.225
		c0.502,0.221,0.973,0.613,1.297,1.084c0.324,0.469,0.5,0.996,0.5,1.494C149.305,1109.93,149.252,1110.213,149.125,1110.512z"/>
</g>
<g>
	<g>
		<path fill="#848484" d="M133.715,998.789c-0.904,0-1.639,0.732-1.639,1.639v52.199H53.521v-87.17h67.272
			c0.906,0,1.639-0.736,1.639-1.639c0-0.904-0.732-1.639-1.639-1.639H51.885c-0.432,0-0.854,0.176-1.158,0.479
			c-0.306,0.305-0.479,0.729-0.479,1.158v90.445c0,0.432,0.174,0.852,0.479,1.158c0.304,0.305,0.727,0.479,1.158,0.479h81.83
			c0.432,0,0.854-0.174,1.156-0.479c0.307-0.309,0.48-0.729,0.48-1.158v-53.836C135.354,999.523,134.619,998.789,133.715,998.789z"
			/>
		<path fill="#848484" d="M152.072,957.297c-0.482-1.076-1.254-1.986-2.209-2.65c-0.955-0.662-2.115-1.08-3.365-1.082
			c-0.713,0-1.447,0.141-2.152,0.443c-0.707,0.301-1.379,0.758-1.979,1.357l-41.105,41.111c-0.131,0.127-0.227,0.262-0.309,0.424
			l-6.091,12.188c-0.316,0.637-0.192,1.393,0.308,1.893c0.5,0.498,1.257,0.621,1.89,0.307l12.176-6.092
			c0.164-0.082,0.301-0.178,0.428-0.307l41.119-41.117c0.6-0.604,1.059-1.271,1.357-1.979c0.301-0.705,0.438-1.439,0.438-2.156
			C152.58,958.811,152.393,958.018,152.072,957.297z M107.533,1002.387l-7.549,3.775l3.778-7.559l33.676-33.678l3.775,3.781
			L107.533,1002.387z M149.125,960.514c-0.127,0.297-0.332,0.611-0.66,0.943l-4.936,4.938l-3.775-3.783l4.928-4.928
			c0.332-0.332,0.646-0.535,0.945-0.662s0.582-0.18,0.871-0.182c0.334,0,0.68,0.076,1.014,0.225c0.5,0.221,0.971,0.613,1.295,1.084
			c0.326,0.469,0.502,0.996,0.5,1.492C149.307,959.93,149.252,960.213,149.125,960.514z"/>
	</g>
	<g>
		<path fill="#848484" d="M67.214,983.678h32.82c0.901,0,1.636-0.732,1.636-1.637c0-0.906-0.732-1.639-1.636-1.639h-32.82
			c-0.904,0-1.637,0.73-1.637,1.639C65.578,982.945,66.31,983.678,67.214,983.678z"/>
		<path fill="#848484" d="M67.214,1002.131h20.104c0.904,0,1.638-0.732,1.638-1.635c0-0.906-0.731-1.641-1.638-1.641H67.214
			c-0.904,0-1.637,0.732-1.637,1.641C65.578,1001.4,66.31,1002.131,67.214,1002.131z"/>
		<path fill="#848484" d="M67.214,1020.588h51.194c0.902,0,1.637-0.734,1.637-1.641c0-0.902-0.73-1.637-1.637-1.637H67.214
			c-0.904,0-1.637,0.732-1.637,1.637C65.578,1019.854,66.31,1020.588,67.214,1020.588z"/>
		<path fill="#848484" d="M118.408,1035.768H67.214c-0.904,0-1.637,0.732-1.637,1.637c0,0.906,0.732,1.639,1.637,1.639h51.194
			c0.902,0,1.637-0.732,1.637-1.639C120.045,1036.5,119.313,1035.768,118.408,1035.768z"/>
	</g>
</g>
<g>
	<path fill="#848484" d="M98.009,854.203h-4.824c-0.056-3.996-3.256-7.217-7.207-7.217c-3.944,0-7.145,3.221-7.203,7.217h-4.824
		c-1.329,0-2.408,1.078-2.408,2.404v26.465c0,1.326,1.08,2.404,2.408,2.404H98.01c1.328,0,2.406-1.078,2.406-2.404v-26.465
		C100.415,855.281,99.337,854.203,98.009,854.203z M85.978,849.391c2.619,0,4.744,2.148,4.799,4.813h-9.598
		C81.241,851.539,83.363,849.391,85.978,849.391z M98.009,883.072H73.951v-26.465H98.01L98.009,883.072L98.009,883.072z"/>
	<path fill="#848484" d="M144.922,825.076l-0.002-0.016l-0.023-0.133l-2.838-13.24c-0.141-0.654-0.719-1.121-1.389-1.121H60.289
		c-0.667,0-1.247,0.467-1.388,1.121l-2.838,13.242l-0.021,0.131v0.016l-0.007,0.149c0,2.966,1.064,5.692,2.838,7.808v65.012
		c0,0.783,0.632,1.416,1.416,1.416h80.381c0.787,0,1.42-0.633,1.42-1.416v-65.012c1.77-2.115,2.838-4.842,2.838-7.808
		L144.922,825.076z M61.434,813.402h78.095l2.225,10.406H78.967H77.84H59.208L61.434,813.402z M98.954,826.645
		c-0.687,4.484-4.56,7.93-9.231,7.93c-4.666,0-8.533-3.448-9.218-7.93H98.954z M58.979,826.645h18.462
		c-0.687,4.484-4.564,7.93-9.23,7.93C63.542,834.574,59.664,831.128,58.979,826.645z M109.816,896.625H61.708v-61.104
		c1.883,1.195,4.109,1.889,6.502,1.889c4.653,0,8.708-2.627,10.756-6.479c2.047,3.854,6.102,6.479,10.756,6.479
		c4.654,0,8.709-2.627,10.76-6.479c1.833,3.457,5.282,5.926,9.334,6.396V896.625L109.816,896.625z M102.008,826.645h18.463
		c-0.686,4.484-4.564,7.93-9.23,7.93C106.568,834.574,102.691,831.129,102.008,826.645z M139.254,896.625h-26.6v-45.973h26.6
		V896.625z M139.254,847.816h-26.6v-10.488c4.053-0.471,7.504-2.94,9.34-6.396c2.051,3.853,6.104,6.479,10.758,6.479
		c2.393,0,4.619-0.693,6.502-1.889V847.816z M132.752,834.574c-4.668,0-8.545-3.445-9.23-7.93h18.459
		C141.295,831.128,137.418,834.574,132.752,834.574z"/>
	<path fill="#848484" d="M118.314,882.098c0.748,0,1.357-0.607,1.357-1.359v-15.715c0-0.748-0.609-1.357-1.357-1.357
		c-0.754,0-1.361,0.609-1.361,1.357v15.715C116.953,881.49,117.563,882.098,118.314,882.098z"/>
</g>
<g>
	<path fill="#848484" d="M96.435,735.367c-2.861,0-5.451,1.16-7.326,3.039c-1.875,1.873-3.037,4.465-3.037,7.324
		c0,2.863,1.162,5.452,3.037,7.327c1.875,1.876,4.465,3.035,7.326,3.035s5.45-1.159,7.327-3.035
		c1.873-1.875,3.031-4.464,3.033-7.327c-0.002-2.859-1.16-5.451-3.033-7.324C101.885,736.527,99.295,735.367,96.435,735.367z
		 M96.435,738.754c1.926,0,3.67,0.78,4.93,2.043c1.264,1.264,2.043,3.008,2.043,4.933c0,1.928-0.779,3.669-2.043,4.934
		c-1.26,1.262-3.003,2.043-4.93,2.043c-1.926,0-3.67-0.781-4.933-2.043c-1.262-1.265-2.043-3.006-2.043-4.934
		c0-1.925,0.781-3.669,2.043-4.933C92.765,739.535,94.507,738.754,96.435,738.754z"/>
	<path fill="#848484" d="M130.143,735.367c-2.859,0-5.451,1.16-7.328,3.039c-1.877,1.873-3.037,4.465-3.037,7.324
		c0,2.863,1.16,5.452,3.037,7.327c1.877,1.876,4.469,3.035,7.328,3.035c2.861,0,5.451-1.159,7.328-3.035
		c1.875-1.875,3.033-4.464,3.033-7.327c0-2.859-1.158-5.451-3.033-7.324C135.594,736.527,133.004,735.367,130.143,735.367z
		 M137.115,745.73v0.006v0.002c0,1.924-0.779,3.664-2.043,4.926c-1.262,1.262-3.002,2.043-4.93,2.043s-3.672-0.781-4.934-2.043
		c-1.264-1.265-2.045-3.006-2.045-4.934c0-1.925,0.781-3.669,2.045-4.933c1.262-1.263,3.006-2.043,4.934-2.043
		s3.668,0.78,4.93,2.043s2.043,3.004,2.043,4.926V745.73z"/>
	<path fill="#848484" d="M140.289,726.234L140.289,726.234h-0.004h-50.71l-26.689-56.292c-0.297-0.627-0.932-1.029-1.626-1.03
		H47.268l0,0c-0.995,0.002-1.797,0.808-1.798,1.801v0.001c0.001,0.994,0.805,1.795,1.798,1.797h12.854l26.689,56.291
		c0.295,0.625,0.928,1.027,1.621,1.027h0.002h0.002h51.853c0.992-0.002,1.799-0.806,1.799-1.799
		C142.088,727.039,141.281,726.236,140.289,726.234z"/>
	<polygon fill="#848484" points="92.043,716.515 92.189,716.515 140.77,716.515 142.635,713.234 90.181,713.234 	"/>
	<polygon fill="#848484" points="86.605,702.919 86.75,702.919 146.207,702.919 148.072,699.638 84.742,699.638 	"/>
	<path fill="#848484" d="M139.293,686.043l4.313-5.923c0.209-0.284,0.309-0.617,0.309-0.942c0-0.495-0.229-0.982-0.654-1.294
		l-4.25-3.097l1.396-1.917c1.406-1.931,2.084-4.178,2.084-6.401c0-3.366-1.555-6.69-4.477-8.82
		c-1.932-1.406-4.178-2.084-6.396-2.084h-0.004l0,0h-0.004h-0.002c-3.359,0-6.688,1.553-8.813,4.477l-1.396,1.916l-4.201-3.062
		c-0.283-0.207-0.615-0.309-0.941-0.309c-0.494,0-0.982,0.229-1.297,0.658l-19.522,26.8H79.304l1.862,3.282h70.48l1.865-3.282
		h-14.221v-0.002H139.293L139.293,686.043z M116.936,668.075c-0.719,0.048-1.412,0.386-1.871,1.013v0.001
		c-0.322,0.444-0.482,0.962-0.482,1.475v0.003v0.004l0,0c0,0.774,0.361,1.541,1.035,2.032v-0.001l0,0
		c0.445,0.325,0.969,0.482,1.48,0.482c0.775,0,1.545-0.359,2.037-1.035c0.324-0.445,0.48-0.966,0.48-1.479
		c0-0.212-0.037-0.416-0.088-0.614l2.566-3.526l12.434,9.058l-2.57,3.527c-0.719,0.047-1.414,0.389-1.871,1.014
		c-0.324,0.446-0.482,0.967-0.482,1.481c0,0.775,0.359,1.544,1.033,2.036c0.447,0.327,0.971,0.484,1.48,0.484
		c0.775,0,1.545-0.361,2.037-1.034l0.002-0.003c0.32-0.445,0.479-0.965,0.479-1.477c0-0.213-0.037-0.418-0.092-0.616l2.57-3.525
		l2.955,2.153l-4.746,6.515H99.394l17.206-23.618l2.908,2.119L116.936,668.075z M131.605,658.766c1.57,0,3.15,0.478,4.518,1.471
		c2.064,1.502,3.16,3.849,3.16,6.229c0,1.57-0.479,3.151-1.473,4.516l-1.396,1.917l-12.432-9.058l1.395-1.916
		C126.883,659.862,129.229,658.766,131.605,658.766z"/>
	<polygon fill="#848484" points="143.605,680.119 143.605,680.12 143.605,680.12 	"/>
	<polygon fill="#848484" points="134.156,682.995 134.154,682.997 134.152,682.999 	"/>
</g>
<g>
	<path fill="#848484" d="M126.611,543.736v-7.435h-0.061v-0.008c-0.012-0.507-0.338-0.956-0.82-1.115l-25.708-8.582l0,0
		c-0.123-0.04-0.249-0.06-0.375-0.06c-0.128,0-0.255,0.02-0.378,0.06h-0.001l-25.71,8.583c-0.479,0.16-0.807,0.607-0.817,1.116
		v0.021c0,0.499,0.309,0.943,0.776,1.117l0,0l7.595,2.842V553.6c0,0.22,0.066,0.425,0.167,0.597
		c0.214,1.015,1.021,1.911,2.197,2.693c3.575,2.368,10.633,3.782,15.817,3.787c3.899-0.001,8.288-0.688,11.761-1.839
		c1.422-0.475,2.984-1.121,4.203-1.965c1.215-0.84,2.105-1.892,2.107-3.188c0-0.169-0.041-0.327-0.104-0.471v-12.595l6.957-2.603
		v5.63c-1.123,0.437-1.926,1.521-1.928,2.798c0.002,1.662,1.354,3.013,3.014,3.013c1.664,0,3.016-1.351,3.018-3.013
		C128.322,545.252,127.619,544.225,126.611,543.736z M99.648,528.992l22.125,7.387l-22.125,8.277l-22.126-8.277L99.648,528.992z
		 M83.503,553.212v-12.045l15.724,5.885l0,0c0.136,0.052,0.278,0.076,0.421,0.076c0.141,0,0.282-0.024,0.419-0.076l14.806-5.542
		v12.088c0,0.108,0.023,0.205,0.053,0.3c-0.141,0.372-0.68,0.868-1.547,1.354c-2.66,1.504-8.254,3.035-14.084,3.033
		c-3.909,0.001-7.856-0.76-10.82-1.73c-1.479-0.485-2.715-1.023-3.57-1.541c-0.864-0.511-1.313-1.028-1.296-1.329
		C83.609,553.514,83.567,553.356,83.503,553.212z M125.307,547.585c-0.629-0.001-1.141-0.511-1.141-1.141s0.51-1.139,1.141-1.14
		c0.631,0.001,1.143,0.511,1.143,1.14S125.938,547.584,125.307,547.585z"/>
	<path fill="#848484" d="M147.619,514.526l-0.305,0.058L147.619,514.526c-0.104-0.534-0.27-1.042-0.563-1.504
		c-0.217-0.349-0.502-0.656-0.844-0.896c-0.506-0.359-1.082-0.555-1.684-0.664c-0.605-0.11-1.262-0.146-2.008-0.146H57.877
		c-0.883,0.002-1.638,0.047-2.334,0.217c-0.521,0.125-1.026,0.335-1.464,0.674c-0.328,0.257-0.6,0.577-0.803,0.931
		c-0.305,0.529-0.459,1.11-0.55,1.726c-0.09,0.621-0.117,1.3-0.117,2.076v63.812c0,0.923,0.038,1.704,0.174,2.415
		c0.106,0.532,0.273,1.043,0.563,1.505c0.219,0.345,0.507,0.655,0.845,0.894c0.506,0.36,1.084,0.552,1.686,0.666
		c0.604,0.108,1.257,0.143,2.002,0.146H98.9v5.443H72.025c-0.721,0-1.305,0.585-1.305,1.305c0,0.719,0.583,1.3,1.305,1.3h56.354
		c0.721,0,1.303-0.582,1.303-1.3c0-0.718-0.582-1.305-1.303-1.305h-26.875v-5.443h41.021c0.883-0.002,1.639-0.047,2.338-0.217
		c0.521-0.125,1.023-0.335,1.463-0.673c0.326-0.257,0.602-0.578,0.803-0.931c0.307-0.531,0.457-1.113,0.551-1.73
		c0.09-0.618,0.113-1.296,0.113-2.073v-63.813C147.791,516.019,147.758,515.238,147.619,514.526z M145.059,582.667
		c-0.059,0.321-0.143,0.514-0.203,0.613c-0.057,0.084-0.084,0.111-0.154,0.168c-0.092,0.064-0.279,0.155-0.643,0.22
		c-0.357,0.067-0.877,0.104-1.533,0.104H57.877H57.85c-0.765,0-1.34-0.055-1.688-0.141c-0.272-0.07-0.406-0.145-0.481-0.199
		c-0.062-0.055-0.093-0.084-0.149-0.18c-0.073-0.123-0.169-0.382-0.228-0.802c-0.061-0.414-0.09-0.974-0.09-1.676v-0.016v-0.005
		v-5.847h89.976v5.847v0.021C145.188,581.605,145.145,582.245,145.059,582.667l0.309,0.06L145.059,582.667z M55.213,516.922
		c0-0.833,0.042-1.475,0.127-1.896v-0.003c0.063-0.319,0.146-0.513,0.209-0.614c0.055-0.081,0.083-0.109,0.154-0.162
		c0.09-0.068,0.28-0.158,0.641-0.224c0.354-0.069,0.866-0.102,1.516-0.102h0.012h0.004h84.649h0.027
		c0.764-0.002,1.336,0.051,1.688,0.14c0.271,0.064,0.402,0.142,0.479,0.201c0.064,0.051,0.094,0.083,0.148,0.176
		c0.074,0.123,0.168,0.382,0.229,0.799v0.001c0.063,0.418,0.092,0.988,0.092,1.7V572.3H55.214v-55.362v-0.004L55.213,516.922
		L55.213,516.922z"/>
</g>
<g>
	<path fill="#848484" d="M102.193,395.607l0.09,0.087l6.48,6.374l0.689-0.461c0.756-0.506,1.619-0.764,2.484-0.764
		c0.162,0,0.326,0.01,0.486,0.025l0.418,0.05l0.07,0.008l15.494-15.504l-9.52-9.521l-15.502,15.501l0.057,0.487
		c0.018,0.164,0.025,0.324,0.025,0.49c0,0.878-0.266,1.753-0.791,2.521L102.193,395.607z M112.148,398.807
		c-0.068-0.003-0.141-0.005-0.211-0.005c-0.996,0-1.98,0.243-2.883,0.691l-4.258-4.188c0.465-0.912,0.711-1.903,0.715-2.905
		l0.002-0.005v-0.016c0-0.072-0.006-0.14-0.008-0.209l13.385-13.383l6.635,6.636L112.148,398.807z"/>
	<path fill="#848484" d="M96.605,411.415l-0.104-0.104l-3.626-3.578l-9.152,9.158l-0.356-0.356l-0.095-0.095l-3.582,2.894
		l-5.135,8.096l2.338,2.336l8.1-5.135l2.885-3.57l-0.452-0.456L96.605,411.415z M83.611,423.085l-6.436,4.078l-0.023-0.022
		l4.078-6.43l1.891-1.527l0.597,0.598l0.724-0.724l8.44-8.447l0.828,0.815l-9.165,9.168l0.596,0.603L83.611,423.085z"/>
	<path fill="#848484" d="M85.42,402.136L85.42,402.136h0.002h0.001h0.003c1.081,0,2.161-0.146,3.212-0.429l25.842,25.846l0,0
		c0.002,0.003,0.004,0.005,0.006,0.008l0,0l0.002,0.002l0,0c1.236,1.219,2.854,1.85,4.469,1.85c1.627,0,3.248-0.633,4.48-1.861
		h0.002c1.229-1.229,1.85-2.844,1.854-4.455l0.002-0.004v-0.017v-0.003v-0.003l0,0c-0.002-1.616-0.623-3.239-1.852-4.479
		l-0.002-0.002l-0.006-0.004l-26.04-26.018c0.201-0.896,0.31-1.807,0.311-2.72v-0.007l0,0l0,0c-0.001-3.131-1.199-6.271-3.579-8.663
		l0,0l-0.002-0.002c-0.001,0-0.001-0.001-0.003-0.001l0,0v-0.001c-0.001-0.001-0.001-0.002-0.002-0.003l0,0l0,0H94.12v-0.002l0,0
		h-0.001l-0.003-0.003c-2.394-2.389-5.534-3.59-8.667-3.589h-0.006l0,0c-0.002,0-0.004,0-0.006,0h-0.004l0,0
		c-1.082,0.001-2.164,0.143-3.217,0.428l-1.701,0.463l7.207,7.205l-1.367,5.104l-5.117,1.368l-7.196-7.201l-0.462,1.701
		c-0.287,1.053-0.431,2.135-0.432,3.218l0,0v0.012c0,3.13,1.202,6.271,3.596,8.665C79.133,400.935,82.281,402.136,85.42,402.136z
		 M89.999,385.063l-5.405-5.404c0.284-0.024,0.566-0.042,0.849-0.042c2.619,0,5.225,0.996,7.23,2.994l0,0
		c1.994,2.002,2.992,4.614,2.993,7.236v0.006c0,0.929-0.127,1.858-0.379,2.756l-0.138,0.493l-0.022,0.083l0.423,0.421l26.446,26.421
		c0.842,0.849,1.256,1.942,1.258,3.046c-0.002,1.103-0.414,2.188-1.25,3.024L122,426.102c-0.846,0.842-1.939,1.263-3.043,1.265
		c-1.096-0.002-2.188-0.423-3.039-1.266l-26.242-26.243l-0.05-0.046l-0.375-0.35l-0.064-0.059l-0.572,0.187
		c-1.032,0.335-2.111,0.504-3.188,0.504c-2.628-0.001-5.241-0.996-7.239-2.997c-2.002-2.002-3-4.61-3-7.228
		c0-0.281,0.02-0.563,0.043-0.846l5.396,5.399l7.393-1.979L89.999,385.063z"/>
	<path fill="#848484" d="M118.205,425.377c0.799,0,1.527-0.324,2.053-0.847c0.523-0.521,0.852-1.245,0.854-2.04l0,0v-0.007v-0.009
		c0-0.797-0.326-1.529-0.85-2.053c-0.521-0.523-1.256-0.851-2.057-0.851c-0.797,0-1.523,0.327-2.045,0.851s-0.85,1.256-0.85,2.053
		c0,0.797,0.326,1.527,0.85,2.05C116.682,425.049,117.408,425.377,118.205,425.377z M117.396,421.654
		c0.211-0.209,0.492-0.338,0.809-0.338c0.326,0.002,0.611,0.129,0.824,0.34c0.209,0.214,0.338,0.497,0.338,0.82v0.009
		c0,0.318-0.129,0.602-0.338,0.811c-0.213,0.211-0.498,0.34-0.824,0.34c-0.313,0-0.598-0.127-0.809-0.34
		c-0.211-0.211-0.338-0.496-0.338-0.818C117.059,422.153,117.186,421.868,117.396,421.654z"/>
	<path fill="#848484" d="M107.248,452.683L107.248,452.683c-0.006-2.313-0.943-4.417-2.461-5.933l0,0l0,0l0,0l0,0
		c-1.506-1.504-3.617-2.459-5.93-2.461l0,0H98.85c-1.99,0-3.81,0.709-5.235,1.854v-0.018l-0.64,0.57h0.002l-0.022,0.02l-0.009,0.006
		l-0.028,0.029h0.002c-1.519,1.517-2.463,3.627-2.463,5.946l0,0v0.002l0,0c0,2.076,0.776,3.995,2.05,5.468v0.057l0.413,0.41
		c1.519,1.52,3.625,2.461,5.935,2.461c2.303,0,4.426-0.938,5.936-2.469l0.322-0.322l0.084-0.088v-0.047
		c1.279-1.467,2.051-3.395,2.053-5.47v-0.016L107.248,452.683L107.248,452.683z M102.803,456.626l-0.205,0.201
		c-0.977,0.898-2.302,1.455-3.745,1.455c-1.485,0-2.834-0.588-3.843-1.546l-0.116-0.121l-0.004-0.002l-0.002-0.004
		c-1.005-1.021-1.617-2.401-1.617-3.908c0.002-1.545,0.617-2.926,1.623-3.942l0.104-0.092l0,0l0.01-0.008l0.004-0.006l0.012-0.011
		c1.016-0.955,2.343-1.537,3.832-1.539h0.004l0,0c1.527,0,2.941,0.64,3.941,1.637c1.016,1.017,1.637,2.406,1.637,3.961v0.003
		C104.436,454.222,103.809,455.631,102.803,456.626z"/>
	<g>
		<path fill="#848484" d="M54.985,388.394c-0.57-0.563-1.36-0.91-2.22-0.91h-6.988c-0.862,0-1.656,0.347-2.228,0.914
			c-0.574,0.563-0.931,1.361-0.931,2.228v0.002v0.002v20.998c0,0.867,0.355,1.657,0.922,2.226c0.563,0.569,1.36,0.935,2.236,0.937
			h6.988c0.875-0.002,1.666-0.369,2.229-0.932c0.565-0.564,0.931-1.354,0.931-2.229v-21v-0.004v-0.002v-0.15H55.91
			C55.869,389.659,55.524,388.92,54.985,388.394z M45.538,411.865l-0.104-0.237v-20.997c0.005-0.112,0.028-0.158,0.096-0.232
			c0.072-0.064,0.134-0.095,0.25-0.098h6.986c0.096,0,0.177,0.035,0.246,0.101c0.071,0.078,0.093,0.126,0.097,0.229v20.995v0.002
			l-0.104,0.234l-0.237,0.104H45.78C45.679,411.965,45.616,411.938,45.538,411.865z"/>
		<polygon fill="#848484" points="54.985,388.393 54.985,388.394 54.985,388.394 		"/>
		<polygon fill="#848484" points="43.548,388.397 43.549,388.397 43.549,388.397 		"/>
		<polygon fill="#848484" points="156.445,388.396 156.445,388.397 156.447,388.398 		"/>
		<path fill="#848484" d="M156.445,388.397L156.445,388.397c-0.57-0.567-1.367-0.914-2.229-0.914h-7.004
			c-0.859,0-1.652,0.349-2.219,0.917c-0.568,0.563-0.928,1.36-0.93,2.228v0.001v20.999c0,0.865,0.357,1.654,0.922,2.223
			c0.561,0.566,1.352,0.938,2.227,0.938h7.004c0.875,0,1.674-0.365,2.238-0.936c0.563-0.567,0.922-1.357,0.922-2.225v-20.999v-0.006
			l0,0C157.373,389.757,157.02,388.962,156.445,388.397z M146.988,411.868l-0.104-0.238v-0.002v-20.997
			c0.006-0.108,0.027-0.159,0.098-0.233c0.068-0.063,0.139-0.094,0.232-0.096h7.002c0.111,0.003,0.178,0.034,0.248,0.097
			c0.064,0.075,0.092,0.122,0.096,0.233v20.996l-0.104,0.237c-0.076,0.073-0.141,0.104-0.238,0.104h-7.006L146.988,411.868z"/>
		<polygon fill="#848484" points="144.994,388.401 144.994,388.4 144.994,388.4 		"/>
		<path fill="#848484" d="M147.896,416.379c-0.146-0.049-0.297-0.074-0.447-0.074c-0.59,0-1.137,0.373-1.336,0.963l0,0
			c-5.428,16.234-19.242,28.645-36.293,32.068c-0.668,0.135-1.133,0.721-1.133,1.381v0.008l0.025,0.256l0.002,0.008v0.008
			c0.139,0.668,0.723,1.131,1.383,1.131h0.008l0.256-0.026l0.006-0.001l0.008-0.001c18.059-3.634,32.66-16.749,38.412-33.938v-0.004
			l-0.002,0.004c0.051-0.146,0.072-0.299,0.072-0.445v-0.002C148.857,417.124,148.486,416.577,147.896,416.379z"/>
		<path fill="#848484" d="M144.803,383.095c0.227,0.537,0.746,0.859,1.295,0.859c0.186,0,0.369-0.037,0.549-0.112
			c0.537-0.229,0.861-0.75,0.861-1.299c0-0.184-0.037-0.371-0.113-0.547c-3.887-9.188-10.373-17-18.543-22.519
			c-8.166-5.518-18.021-8.74-28.616-8.74c-10.6,0-20.451,3.222-28.618,8.74c-8.168,5.519-14.656,13.331-18.543,22.519
			c-0.076,0.178-0.111,0.365-0.111,0.549v0.001c0,0.549,0.324,1.067,0.858,1.296h0.002c0.178,0.075,0.363,0.112,0.548,0.112
			c0.549,0,1.069-0.323,1.297-0.859c3.672-8.68,9.807-16.067,17.526-21.281c7.721-5.217,17.019-8.259,27.041-8.261
			c10.021,0.001,19.318,3.043,27.039,8.261C134.996,367.028,141.129,374.415,144.803,383.095z"/>
	</g>
</g>
<g>
	<g>
		<g>
			<path fill="#848484" d="M70.748,256.322h-2.776v4.229c0,0.604-0.143,1.063-0.426,1.379c-0.282,0.312-0.647,0.468-1.078,0.468
				c-0.456,0-0.828-0.149-1.101-0.466c-0.283-0.312-0.423-0.764-0.423-1.363v-11.514c0-0.668,0.157-1.142,0.459-1.43
				c0.312-0.286,0.795-0.425,1.456-0.425h3.887c1.148,0,2.035,0.086,2.652,0.261c0.609,0.174,1.141,0.456,1.584,0.848
				c0.445,0.395,0.781,0.876,1.019,1.45c0.229,0.57,0.336,1.209,0.336,1.927c0,1.519-0.465,2.677-1.404,3.458
				C73.998,255.93,72.608,256.322,70.748,256.322z M70.017,249.473h-2.045v4.567h2.044c0.71,0,1.306-0.076,1.787-0.228
				c0.478-0.146,0.841-0.392,1.096-0.729c0.253-0.345,0.376-0.787,0.376-1.336c0-0.663-0.189-1.197-0.582-1.61
				C72.258,249.693,71.366,249.473,70.017,249.473z"/>
			<path fill="#848484" d="M80.749,247.2h3.938c1.031,0,1.914,0.095,2.646,0.285c0.729,0.189,1.397,0.546,2.001,1.07
				c1.555,1.332,2.332,3.357,2.332,6.076c0,0.897-0.074,1.717-0.232,2.454c-0.152,0.741-0.396,1.41-0.725,2.008
				c-0.326,0.594-0.746,1.125-1.255,1.594c-0.399,0.357-0.836,0.646-1.313,0.865c-0.479,0.217-0.99,0.373-1.533,0.457
				c-0.553,0.091-1.17,0.132-1.854,0.132H80.81c-0.55,0-0.961-0.079-1.244-0.25c-0.276-0.165-0.457-0.397-0.543-0.697
				c-0.088-0.305-0.123-0.696-0.123-1.18v-10.958c0-0.653,0.144-1.127,0.438-1.416C79.621,247.344,80.095,247.2,80.749,247.2z
				 M81.919,249.593v10.142h2.291c0.504,0,0.9-0.012,1.186-0.037c0.283-0.027,0.576-0.098,0.891-0.207
				c0.308-0.104,0.568-0.258,0.793-0.453c1.009-0.859,1.518-2.337,1.518-4.426c0-1.475-0.217-2.579-0.668-3.316
				c-0.441-0.735-0.99-1.197-1.643-1.401c-0.653-0.201-1.438-0.301-2.364-0.301L81.919,249.593L81.919,249.593z"/>
			<path fill="#848484" d="M103.254,249.534h-5.963v3.821h4.986c0.461,0,0.805,0.104,1.033,0.311
				c0.227,0.208,0.344,0.486,0.344,0.831c0,0.347-0.115,0.625-0.348,0.825c-0.236,0.206-0.572,0.309-1.029,0.309h-4.986v4.92
				c0,0.629-0.144,1.092-0.423,1.394c-0.283,0.304-0.645,0.454-1.086,0.454c-0.447,0-0.809-0.15-1.094-0.459
				c-0.28-0.309-0.422-0.77-0.422-1.389v-11.496c0-0.433,0.064-0.792,0.193-1.065c0.129-0.277,0.33-0.477,0.605-0.605
				c0.271-0.12,0.627-0.184,1.056-0.184h7.134c0.482,0,0.842,0.105,1.072,0.319c0.236,0.219,0.354,0.495,0.354,0.84
				c0,0.357-0.115,0.639-0.354,0.854C104.094,249.427,103.736,249.534,103.254,249.534z"/>
		</g>
	</g>
	<path fill="#848484" d="M148.758,225.016l-0.012-0.072l-0.014-0.094l-0.021-0.082l-0.02-0.08l-0.029-0.081l-0.025-0.078
		l-0.031-0.073l-0.039-0.08l-0.039-0.067l-0.049-0.077l-0.053-0.07l-0.049-0.063l-0.102-0.115l-0.014-0.011l-22.301-22.298
		l-0.002-0.002c-0.053-0.053-0.107-0.104-0.172-0.148l-0.041-0.03c-0.061-0.044-0.125-0.085-0.189-0.121l-0.016-0.007
		c-0.063-0.032-0.127-0.061-0.191-0.085l-0.043-0.016c-0.068-0.024-0.146-0.045-0.223-0.061h-0.006
		c-0.068-0.013-0.141-0.022-0.213-0.027l-0.059-0.003l-0.063-0.002h-56.6c-2.837,0-5.146,2.309-5.146,5.146v28.235H57.38
		c-4.974,0.002-9.013,4.041-9.014,9.016v22.464c0.001,4.974,4.04,9.013,9.014,9.015h5.618v30.758c0,2.838,2.31,5.146,5.146,5.146
		h75.473c2.836,0,5.146-2.308,5.146-5.145v-80.619C148.768,225.129,148.764,225.072,148.758,225.016z M126.469,207.027
		l16.441,16.443h-14.729c-0.945,0-1.715-0.771-1.715-1.715v-14.728H126.469z M53.371,270.047c-1.032-1.033-1.667-2.447-1.667-4.016
		v-22.464c0-1.569,0.635-2.984,1.667-4.016c1.032-1.034,2.444-1.669,4.015-1.669h8.894l0.002-0.001h44.767
		c1.568,0.001,2.982,0.636,4.016,1.669c1.031,1.033,1.668,2.447,1.668,4.017v22.463c0,1.567-0.637,2.979-1.668,4.017
		c-1.033,1.031-2.447,1.666-4.016,1.668H57.385C55.815,271.713,54.402,271.079,53.371,270.047z M145.336,305.805
		c0,0.943-0.771,1.715-1.715,1.715H68.149c-0.944,0-1.716-0.771-1.716-1.717v-30.756h44.735l0.033-0.01
		c4.9-0.087,8.855-4.088,8.857-9.007v-22.463c-0.002-4.976-4.039-9.014-9.016-9.016h-44.61v-28.235c0-0.946,0.771-1.715,1.716-1.715
		h54.886v17.153c0,2.836,2.314,5.145,5.146,5.145h17.154V305.805L145.336,305.805z"/>
</g>
<g>
	<g>
		<g>
			<path fill="#848484" d="M130.963,131.756l1.338-0.549c0.283-0.115,0.557-0.231,0.816-0.348l0.002-0.002
				c1.002-0.448,1.91-0.927,2.717-1.443l-0.002,0.002c1.217-0.777,2.199-1.619,2.928-2.607l0.051-0.073l-0.053,0.075
				c0.359-0.487,0.65-1.016,0.852-1.572c0.197-0.551,0.307-1.146,0.305-1.74c0-0.475-0.066-0.942-0.191-1.394
				c-0.242-0.856-0.684-1.646-1.268-2.386l-0.004-0.006c-0.512-0.642-1.127-1.242-1.846-1.824l-0.002-0.004
				c-1.266-1.016-2.824-1.938-4.65-2.775l-0.191-0.087l0.191,0.088c-2.736-1.25-6.063-2.293-9.844-3.03
				c-3.777-0.732-7.996-1.16-12.5-1.16c-0.912,0-1.674,0.008-2.344,0.026h-0.008c-0.998,0.029-1.803,0.093-2.563,0.228l-0.633,0.107
				l0.633-0.107c-0.75,0.131-1.455,0.332-2.193,0.604h-0.002l-0.914,0.333v0.973v22.014l1.178,0.184
				c0.602,0.094,1.107,0.164,1.613,0.209l0.002,0.001c0.504,0.046,1.004,0.068,1.564,0.068c0.797-0.002,1.721-0.041,3.064-0.11
				l0.783-0.039l3.656,6.381l-0.057-0.103l0.047,0.028l0.018-0.002h0.012l6.104-0.735l1.023-0.188l9.707,17.274l0.012,0.019
				c0.617,1.076,1.5,1.929,2.514,2.5c1.014,0.574,2.154,0.875,3.318,0.877c0.004,0,0.004-0.002,0.008-0.002
				c1.133,0.002,2.295-0.291,3.344-0.895l0.002-0.001c1.074-0.617,1.93-1.502,2.498-2.513c0.572-1.014,0.875-2.158,0.877-3.325
				c0-1.138-0.293-2.297-0.895-3.345l-0.002-0.004L130.963,131.756z M109.074,132.665c-1.426,0.071-2.355,0.112-3.086,0.113h-0.004
				h-0.023h-0.008h-0.004h-0.002c-0.127,0-0.23-0.001-0.318-0.002l-1.262-0.018v-18.725l1.086-0.167l0.01-0.002l0.014-0.002
				c0.457-0.063,0.979-0.105,1.646-0.132c0.67-0.027,1.48-0.033,2.486-0.033c4.02,0,7.799,0.354,11.195,0.967
				c2.547,0.457,4.877,1.06,6.934,1.764c1.537,0.527,2.92,1.107,4.123,1.725h-0.002l0.004,0.001c0,0,0,0-0.002-0.001
				c0.898,0.462,1.693,0.939,2.377,1.43l0.006,0.002c-0.004-0.002-0.006-0.002-0.01-0.006l0.074,0.053l-0.064-0.047
				c1.023,0.73,1.76,1.451,2.238,2.141c0-0.001,0-0.001,0-0.003l0.002,0.005c0-0.002-0.002-0.002-0.002-0.002
				c0.236,0.339,0.398,0.652,0.504,0.954v-0.003c0.105,0.281,0.15,0.582,0.15,0.812v0.009v0.006c0,0.191-0.031,0.429-0.088,0.625
				c-0.111,0.396-0.344,0.834-0.727,1.289c0,0,0,0,0.002,0l-0.004,0.002c0.002,0,0.002,0,0.002-0.002
				c-0.346,0.41-0.793,0.823-1.371,1.242l0.006-0.004c-1.012,0.737-2.369,1.453-4.041,2.118l0.004-0.003
				c-0.561,0.261-2.77,0.962-2.77,0.962c-1.898,0.569-4.244,1.138-6.607,1.563C117.852,131.961,113.645,132.43,109.074,132.665z
				 M114.316,141.502l-0.842,0.1l-3.547-6.187l2.025-0.146c1.523-0.111,3.006-0.252,4.438-0.416l0.889-0.104l0.4,0.799l0.066,0.133
				l-0.004-0.014c0.074,0.152,0.146,0.291,0.209,0.409l0.002,0.005c0.064,0.119,0.109,0.207,0.158,0.291h0.002l0.006,0.008l0,0
				l2.453,4.371L114.316,141.502z M140.1,154.728c0,0.688-0.18,1.358-0.518,1.957l-0.002,0.002c-0.328,0.585-0.83,1.108-1.461,1.469
				l-0.004,0.001c-0.615,0.354-1.303,0.527-1.961,0.525h-0.004c-0.686,0-1.354-0.178-1.951-0.516h-0.004
				c-0.588-0.332-1.105-0.832-1.469-1.463l-0.008-0.014l-12.406-22.079l1.727-0.349c1.877-0.379,3.629-0.815,5.246-1.316
				l0.982-0.306l11.313,20.146l-0.008-0.019C139.93,153.385,140.1,154.067,140.1,154.728L140.1,154.728z"/>
			<path fill="#848484" d="M122.33,140.48c-0.084-0.651-0.682-1.115-1.332-1.033l-6.826,0.865l-2.781-5.722
				c-0.287-0.592-1-0.838-1.592-0.551c-0.59,0.287-0.838,1-0.551,1.592l3.152,6.49c0.225,0.459,0.717,0.723,1.223,0.66l7.674-0.972
				C121.949,141.728,122.412,141.131,122.33,140.48z"/>
		</g>
	</g>
	<path fill="#848484" d="M132.025,50.668c-0.271-0.41-0.732-0.668-1.24-0.668H81.286c-0.343,0-0.671,0.116-0.938,0.333
		l-21.511,17.49c-0.454,0.368-0.643,0.967-0.497,1.527v50.631c0,0.392,0.159,0.774,0.437,1.052c0.275,0.277,0.66,0.437,1.055,0.437
		h36.387c0.822,0,1.488-0.666,1.488-1.486c0-0.822-0.666-1.489-1.488-1.489h-34.9V70.467h49.011v36.08
		c0,0.821,0.666,1.486,1.488,1.486c0.82,0,1.488-0.665,1.488-1.486V69.419L129.43,54.74v47.849l-5.266,4.708
		c-0.611,0.547-0.666,1.486-0.117,2.102c0.547,0.611,1.486,0.666,2.104,0.117l5.762-5.151c0.316-0.283,0.496-0.687,0.496-1.11
		V51.657C132.406,51.274,132.26,50.931,132.025,50.668z M81.814,52.976h19.516L85.328,67.427c-0.021,0.02-0.037,0.042-0.054,0.062
		H63.966L81.814,52.976z M110.998,67.488H89.7l16.069-14.513h21.172L110.998,67.488z"/>
	<g>
		<polyline fill="#848484" points="74.808,88.214 74.808,99.263 75.792,99.263 75.792,88.214 		"/>
		<polyline fill="#848484" points="80.469,88.214 80.469,99.263 81.454,99.263 81.454,88.214 		"/>
		<polyline fill="#848484" points="87.359,88.214 87.359,99.263 88.345,99.263 88.345,88.214 		"/>
		<polyline fill="#848484" points="89.577,88.214 89.577,99.263 90.56,99.263 90.56,88.214 		"/>
		<polyline fill="#848484" points="92.65,88.214 92.65,99.263 93.638,99.263 93.638,88.214 		"/>
		<polyline fill="#848484" points="77.023,88.214 77.023,99.263 79.238,99.263 79.238,88.214 		"/>
		<polyline fill="#848484" points="83.79,88.214 83.79,99.263 86.006,99.263 86.006,88.214 		"/>
		<polyline fill="#848484" points="94.869,88.214 94.869,99.263 97.082,99.263 97.082,88.214 		"/>
	</g>
	<path fill="#848484" d="M102.271,83.599c-0.486-0.489-1.172-0.796-1.916-0.795H71.572c-0.744-0.001-1.432,0.306-1.918,0.795
		c-0.486,0.484-0.793,1.172-0.792,1.916v16.242c-0.001,0.743,0.307,1.43,0.792,1.916c0.486,0.488,1.174,0.793,1.918,0.793h28.784
		c0.744,0,1.431-0.305,1.917-0.793c0.484-0.486,0.793-1.172,0.793-1.916V85.514C103.066,84.771,102.76,84.084,102.271,83.599z
		 M100.089,101.489H71.837V85.78h28.252V101.489L100.089,101.489z"/>
</g>
</svg>
